PathFileType	3	(X/Y/Z)	C:\Users\koon_\Desktop\
DataRate	CameraRate	NumFrames	NumMarkers	Units	OrigDataRate	OrigDataStartFrame	OrigNumFrames
100.0	100.0	12	27	mm	100.0	2207	3531	
Frame#	Time	get:LFHD			get:RFHD			get:LBHD			get:RBHD			get:C7			get:T10			get:CLAV			get:STRN			get:RBAK			get:LSHO			get:LUPA			get:LELB			get:LFRA			get:LWRA			get:LWRB			get:LFIN			get:RSHO			get:RUPA			get:RELB			get:RFRA			get:RWRA			get:RWRB			get:RFIN			get:LASI			get:RASI			get:LPSI			get:RPSI			
		X1	Y1	Z1	X2	Y2	Z2	X3	Y3	Z3	X4	Y4	Z4	X5	Y5	Z5	X6	Y6	Z6	X7	Y7	Z7	X8	Y8	Z8	X9	Y9	Z9	X10	Y10	Z10	X11	Y11	Z11	X12	Y12	Z12	X13	Y13	Z13	X14	Y14	Z14	X15	Y15	Z15	X16	Y16	Z16	X17	Y17	Z17	X18	Y18	Z18	X19	Y19	Z19	X20	Y20	Z20	X21	Y21	Z21	X22	Y22	Z22	X23	Y23	Z23	X24	Y24	Z24	X25	Y25	Z25	X26	Y26	Z26	X27	Y27	Z27	
2207	22.06	30.893816	1535.3956	-27.963902	-106.71574	1535.3264	-78.738495	76.715988	1527.2867	-158.33376	-67.976151	1521.9978	-207.43817	-3.8678765	1331.5186	-221.783	5.000021	1118.7352	-252.28593	-24.855415	1234.4663	-30.748711	-31.398952	1080.7955	12.087493	-90.80986	1258.2263	-256.15012	136.20389	1329.0519	-133.25334	304.88995	1242.1963	-79.215332	408.19028	1175.3738	-109.51266	367.36554	1254.7418	-79.918434	369.26517	1360.7784	54.098293	435.90894	1372.7026	24.375072	412.0672	1440.1093	69.258415	-144.28471	1335.3143	-140.73936	-251.78584	1243.0814	-146.43646	-377.49457	1079.9072	-209.4651	-420.8255	1040.4285	-57.409111	-463.30844	989.6355	15.460662	-509.94916	987.1571	-43.421734	-534.09943	974.96301	45.399853	112.05221	890.09186	-45.044537	-176.91348	911.14935	-75.046288	41.124638	928.7323	-236.1136	-45.675152	929.72772	-248.84731
2208	22.07	30.373413	1535.3459	-28.406553	-107.21003	1535.3199	-79.253754	76.503822	1527.7474	-158.78024	-68.344383	1522.4009	-208.09828	-4.3508167	1331.3517	-222.44312	4.6374702	1118.7327	-252.71579	-24.840668	1234.6555	-31.084698	-31.19713	1081.115	11.65743	-91.396446	1258.0289	-256.52429	135.95424	1329.5612	-134.3839	305.08481	1243.3485	-78.623589	408.67407	1176.8743	-111.34928	369.35703	1255.7961	-78.41777	375.06747	1355.6078	61.20771	441.49707	1368.114	30.799824	419.24008	1433.4812	79.604095	-144.1805	1335.4722	-141.26225	-252.57236	1244.3485	-145.18309	-380.67957	1082.7433	-204.38075	-424.31342	1055.554	-49.88097	-467.54385	1012.1346	27.307621	-514.1131	1005.6487	-30.932617	-538.43182	1001.3232	58.319836	112.25844	890.17731	-45.719238	-176.88712	911.15479	-74.840569	40.686523	928.73132	-236.61633	-46.117569	929.75256	-249.02841
2209	22.08	29.767467	1535.339	-28.896841	-107.81304	1535.2678	-79.862	76.00943	1528.145	-159.26987	-68.668716	1522.9492	-208.73389	-4.888834	1331.2463	-223.01906	4.0744691	1118.7833	-253.11064	-24.731577	1234.8729	-31.390968	-30.877033	1081.4481	10.733446	-92.03759	1257.9069	-256.77048	135.46503	1329.9977	-135.35921	305.44067	1244.2627	-78.040039	409.20044	1178.5313	-113.14954	371.56479	1257.2399	-75.874756	380.84329	1349.7028	68.149727	446.91571	1363.0275	37.06517	426.12048	1426.0244	89.540886	-144.08092	1335.6381	-141.44658	-253.27266	1245.9012	-143.62473	-384.09869	1086.1077	-198.89134	-427.11404	1070.778	-43.083252	-470.90515	1034.4641	37.617275	-518.01721	1024.9568	-19.936655	-541.89789	1027.972	69.789406	112.42825	890.31689	-46.386063	-176.76642	911.17175	-74.555359	40.244221	928.77576	-237.07028	-46.631821	929.70825	-249.1626
2210	22.09	29.137028	1535.4191	-29.311195	-108.42527	1535.2063	-80.424614	75.435181	1528.5884	-159.75824	-69.378151	1522.9796	-209.22469	-5.4880762	1331.1553	-223.62204	3.4705863	1118.8265	-253.44911	-24.563728	1235.0555	-31.768497	-30.411196	1081.7155	10.476134	-92.810562	1257.8007	-256.90579	134.98329	1330.465	-136.24368	305.52075	1244.9041	-79.753044	409.79269	1180.3654	-114.83913	374.44482	1258.8403	-71.114082	386.67834	1343.2561	74.821747	452.25784	1357.4294	43.237461	433.17639	1417.8124	99.173561	-143.91646	1335.8108	-141.45651	-254.00638	1247.6792	-141.81558	-387.80551	1090.1013	-193.14224	-429.63474	1086.1257	-36.910885	-473.73752	1056.8524	46.444569	-521.53564	1044.6947	-9.7809792	-544.77997	1054.7965	79.478294	112.68886	890.48376	-47.073616	-176.63429	911.18372	-74.173119	39.739662	928.77753	-237.57814	-47.163036	929.69135	-249.25618
2211	22.1	28.422421	1535.4952	-29.80983	-109.06493	1535.0538	-81.070343	74.786552	1529.002	-160.26863	-69.945465	1523.1211	-209.79303	-6.1077795	1331.0924	-224.03711	2.7429957	1118.9058	-253.83339	-24.266066	1235.2513	-32.05191	-29.852562	1081.9425	10.294537	-93.77182	1257.7319	-256.83591	134.37439	1331.0347	-137.09216	305.15857	1245.1687	-82.599945	410.60837	1182.245	-116.58559	377.27191	1259.1859	-68.491806	392.37442	1336.1239	81.283958	457.64349	1351.1196	49.337105	440.47739	1408.8379	108.44427	-143.69609	1335.9729	-141.37039	-254.79558	1249.6509	-139.8367	-391.92224	1094.6725	-187.32355	-432.03989	1101.4961	-31.311121	-476.06793	1079.2103	54.203041	-525.84839	1065.007	-2.2826135	-547.93127	1081.7161	86.300819	112.94759	890.63269	-47.880833	-176.45105	911.20197	-73.757935	39.17152	928.75537	-237.98505	-47.782394	929.69501	-249.43513
2212	22.11	27.714718	1535.6897	-30.361364	-109.76076	1534.8596	-81.565819	74.137131	1529.3947	-160.782	-70.613533	1523.3407	-210.49568	-6.7757344	1331.0593	-224.53117	1.9618576	1118.9899	-254.19257	-23.854778	1235.4308	-32.267384	-29.19265	1082.1887	10.231686	-94.721649	1257.7485	-256.77112	133.9536	1331.5066	-138.07236	304.18875	1245.3406	-84.727547	411.46646	1184.1202	-118.35825	379.39957	1258.886	-65.884544	398.11292	1328.2527	87.814491	462.98651	1344.0444	55.175076	447.62894	1398.8505	117.33697	-143.43065	1336.1614	-141.29851	-255.3699	1251.7131	-137.13614	-396.28098	1099.8832	-181.54115	-434.21265	1116.7477	-26.251434	-478.07626	1101.2391	60.050797	-528.79401	1085.4745	5.8158545	-549.84058	1108.6569	92.658798	113.30663	890.75867	-48.663219	-176.28551	911.20953	-73.332092	38.548233	928.7926	-238.493	-48.411022	929.66492	-249.61485
2213	22.12	26.9965	1535.8689	-30.861162	-110.52455	1534.6282	-82.027214	73.172409	1529.6263	-161.28802	-71.273331	1523.1715	-210.54361	-7.4450583	1331.0481	-224.97218	1.1071219	1119.0878	-254.52136	-23.368513	1235.4222	-32.576134	-28.417168	1082.3607	9.9516354	-95.809998	1257.8556	-256.74277	133.45065	1331.9802	-139.01942	303.31155	1245.4757	-86.770706	412.17734	1185.9773	-120.21696	381.27213	1258.5863	-63.613392	403.81378	1319.6185	93.716782	468.35736	1336.2666	60.684624	454.86362	1387.6219	126.12324	-143.17264	1336.3157	-141.08611	-256.18625	1253.9449	-135.44537	-400.63834	1105.7477	-175.65141	-436.18076	1131.839	-21.759821	-479.42902	1123.1824	66.461884	-529.9798	1104.5214	13.908293	-550.57825	1134.8485	98.799774	113.68298	890.88263	-49.422043	-176.08133	911.21454	-72.797935	37.910141	928.77844	-238.93185	-49.098282	929.61945	-249.65698
2214	22.13	26.302893	1536.0975	-31.407337	-111.27683	1534.3799	-82.497269	72.62278	1530.0522	-161.80536	-72.127876	1522.8396	-211.21588	-8.1420965	1331.037	-225.30222	0.18799037	1119.2076	-254.9128	-23.016985	1235.9209	-32.645329	-27.700794	1082.5221	9.8426352	-96.803711	1257.9261	-256.59909	132.98634	1332.3558	-140.00218	302.90121	1245.8147	-88.164558	412.69189	1187.8933	-122.0405	383.24783	1258.142	-61.41243	409.55164	1310.2522	99.343025	473.65787	1328.0858	65.764328	461.81155	1375.1749	134.65649	-142.84932	1336.4492	-140.74023	-256.95126	1256.5771	-133.20045	-405.01364	1111.6001	-169.30876	-437.84583	1146.6282	-17.400463	-480.4642	1144.5735	71.36985	-531.8501	1124.0881	20.776236	-550.18744	1160.462	104.1515	114.05379	891.04614	-50.194904	-175.79726	911.19806	-72.25042	37.2374	928.79718	-239.32808	-49.774284	929.55072	-249.69795
2215	22.14	25.526304	1536.3273	-31.914026	-112.01302	1534.1378	-82.889702	71.829315	1530.2943	-162.29817	-72.938705	1522.6255	-211.64056	-8.8403902	1330.9812	-225.67342	-0.68288833	1119.2965	-255.21266	-22.540815	1235.8647	-32.729939	-26.990047	1082.6178	9.5245533	-97.832634	1258.0404	-256.63281	132.48865	1332.7203	-140.90396	302.85846	1246.4955	-89.163162	413.20996	1189.7709	-123.62398	385.35913	1257.3964	-58.920925	415.10342	1300.1268	103.72719	478.77283	1319.5931	70.272095	468.59744	1362.0325	142.82054	-142.56459	1336.5833	-140.35143	-257.69797	1259.2473	-130.99347	-409.31845	1117.958	-163.31911	-439.45871	1161.4923	-14.045323	-481.15115	1165.5825	75.289825	-533.22058	1144.0265	26.524818	-550.112	1185.8375	107.401	114.42816	891.17712	-50.938808	-175.54457	911.21173	-71.673203	36.59663	928.77264	-239.77269	-50.472984	929.52673	-249.80048
2216	22.15	24.849205	1536.5912	-32.33947	-112.77533	1533.8998	-83.286797	70.990402	1530.549	-162.87048	-73.998276	1522.4546	-212.20123	-9.5147839	1330.9413	-225.82048	-1.6019831	1119.4381	-255.56215	-22.112619	1235.8788	-32.975441	-26.362713	1082.7253	10.111626	-98.886681	1258.1183	-256.39957	132.0103	1333.0519	-141.65605	302.92673	1247.3665	-90.164925	413.74368	1191.4493	-124.90397	387.521	1256.2549	-56.400063	420.51144	1289.8068	107.75368	483.88721	1311.0519	74.430458	475.19901	1347.8259	150.34248	-142.26631	1336.7201	-140.02737	-258.46136	1262.0872	-128.91101	-413.57953	1124.65	-157.38402	-440.75882	1176.0967	-10.721938	-481.39441	1186.2413	78.5224	-535.12195	1163.2006	31.607035	-549.49976	1210.5745	109.59091	114.78427	891.27844	-51.717682	-175.32462	911.18103	-71.09494	35.971992	928.74615	-240.24806	-51.12883	929.48468	-249.88634
2217	22.16	24.11368	1536.8533	-32.855644	-113.53336	1533.7074	-83.53067	70.196167	1530.717	-163.34509	-74.573669	1522.0759	-212.43457	-10.19381	1330.9764	-225.9946	-2.4710464	1119.611	-255.82022	-21.734241	1235.8632	-33.056583	-25.736687	1082.7041	9.9166269	-99.834106	1258.2114	-256.28055	131.61182	1333.3457	-142.29259	302.90082	1248.1643	-91.004623	414.19043	1192.8556	-126.06461	389.57431	1254.7235	-53.976025	425.77115	1278.833	111.33862	488.64694	1301.937	77.987114	481.68774	1332.9435	156.79613	-141.98865	1336.8573	-139.62592	-259.17148	1265.0474	-126.84692	-417.5878	1131.5681	-151.52567	-442.65561	1190.5582	-8.7780447	-482.12878	1206.5231	80.1129	-535.30231	1182.1553	36.479218	-548.41339	1234.6476	110.94751	115.06538	891.41681	-52.434036	-175.0714	911.20099	-70.478485	35.339497	928.73114	-240.67493	-51.779552	929.37854	-249.84106
2218	22.17	23.451752	1537.147	-33.298244	-114.28529	1533.4995	-83.946648	69.131912	1530.7629	-163.82321	-75.398872	1521.7686	-212.80312	-10.890271	1331.0179	-226.12857	-3.3314774	1119.728	-256.06839	-21.379555	1235.8518	-33.143166	-25.182095	1082.6873	9.7386389	-100.84209	1258.2524	-256.02008	131.22554	1333.6335	-142.96603	302.65802	1248.7041	-91.679794	414.44022	1194.0248	-127.12687	391.31766	1252.7041	-51.596706	431.02924	1267.0945	114.31268	493.19312	1292.2533	81.042816	487.91824	1317.6735	162.08447	-141.65964	1336.9889	-139.33276	-259.80783	1267.972	-124.71723	-421.32819	1138.6936	-145.9335	-443.31387	1204.4996	-5.9382987	-481.33224	1226.2059	82.227211	-535.72968	1201.0663	40.235031	-546.98102	1257.9907	111.48797	115.34395	891.49799	-53.131565	-174.83139	911.18506	-69.887337	34.737511	928.67615	-240.98279	-52.405254	929.33862	-249.87737
